DBRep_DrawableShape

CASCADE Topology V1, (c) Matra-Datavision
Locations 2
1
              1               0               0               0 
              0               1               0               0 
              0               0               1 -1126.14796385672 
2  1 -1 0
Curve2ds 8
1 0 0 -0.076186766188343594 -0.99709356464564691 
1 666.08717999028977 -1.4210854715202004e-14 -0.076186766188343594 -0.99709356464564691 
1 0 0 -0.1038408063813801 -0.99459393067224422 
1 0 0 1 -1.3877787807814454e-17 
1 -85.797571615830947 -1122.8748876003317 1 -1.3877787807814454e-17 
1 1694.0317616912653 2.8421709430404007e-14 -0.1038408063813801 -0.99459393067224422 
1 0 0 1 2.7755575615628914e-17 
1 -116.94011267163084 -1120.0599298907971 1 2.7755575615628914e-17 
Curves 5
1 1164.3122608163217 -189.54521209019569 693.89710505112407 0 0 -1 
1 1405.5503212924946 429.24479158602549 744.6441332940974 0 0 -1 
1 1164.3122608163217 -189.54521209019569 693.89710505112407 0.36217190140138966 0.92899251369053815 0.07618676618834358 
1 2283.5382307548894 1867.2770042228437 920.55375746378832 0 0 -1 
1 1405.5503212924946 429.24479158602549 744.6441332940974 0.51828302710560792 0.84888149393440793 0.1038408063813801 
Polygon3D 0
PolygonOnTriangulations 0
Surfaces 2
1 1164.3122608163217 -189.54521209019569 693.89710505112407 0.93170044079132053 -0.36322759893661588 0 0.36217190140138972 0.92899251369053826 0.076186766188343594 -0.027673136153337396 -0.070983243640145008 0.99709356464564691 
1 1405.5503212924946 429.24479158602549 744.6441332940974 0.85349555004890343 -0.52110013053799908 0 0.51828302710560803 0.84888149393440804 0.1038408063813801 -0.054111457760508262 -0.088627666159997689 0.99459393067224422 
Triangulations 0

TShapes 14
Ve
1e-07
1164.31226081632 -189.545212090196 693.897105051124
0 0

0101101
*
Ed
 1e-07 1 1 0
1  1 0 0 1126.14796385672
2  1 1 0 0 1126.14796385672
0

0101000
+14 0 -14 1 *
Ve
1e-07
1405.55032129249 429.244791586025 744.644133294097
0 0

0101101
*
Ed
 1e-07 1 1 0
1  2 0 0 1126.14796385672
2  2 1 0 0 1126.14796385672
2  3 2 0 0 1126.14796385672
0

0101000
+12 0 -12 1 *
Ed
 1e-07 1 1 0
1  3 0 0 666.08717999029
2  4 1 0 0 666.08717999029
2  5 1 2 0 666.08717999029
0

0101000
+14 0 -12 0 *
Wi

0101100
+13 0 -11 0 -10 0 +10 1 *
Fa
0  1e-07 1 0

0111000
+9 0 *
Ve
1e-07
2283.53823075489 1867.27700422284 920.553757463788
0 0

0101101
*
Ed
 1e-07 1 1 0
1  4 0 0 1126.14796385672
2  6 2 0 0 1126.14796385672
0

0101000
+7 0 -7 1 *
Ed
 1e-07 1 1 0
1  5 0 0 1694.03176169127
2  7 2 0 0 1694.03176169127
2  8 2 2 0 1694.03176169127
0

0101000
+12 0 -7 0 *
Wi

0101100
+11 0 -6 0 -5 0 +5 1 *
Fa
0  1e-07 2 0

0111000
+4 0 *
Sh

0101000
+8 0 +3 0 *
Co

1100000
+2 0 *

+1 0 