DBRep_DrawableShape

CASCADE Topology V1, (c) Matra-Datavision
Locations 0
Curve2ds 48
1 0 0 0 1 
1 0 0 1 0 
1 0 1 1 0 
1 1 0 0 1 
1 0 0 0 1 
1 0 1 1 0 
1 0 0 1 0 
1 0 0 0 1 
1 1 0 0 1 
1 0 0 0 1 
1 0 1 1 0 
1 0 0 1 0 
1 0 0 0 1 
1 1 0 0 1 
1 0 0 0 1 
1 0 1 1 0 
1 0 0 1 0 
1 0 0 0 1 
1 1 0 0 1 
1 0 0 0 1 
1 0 0 1 0 
1 0 1 1 0 
1 9 0 0 1 
1 0 0 0 1 
1 0 1 1 0 
1 0 0 1 0 
1 9 0 0 1 
1 0 0 0 1 
1 0 1 1 0 
1 0 0 1 0 
1 9 0 0 1 
1 0 0 0 1 
1 0 1 1 0 
1 0 0 1 0 
1 9 0 0 1 
1 0 0 0 1 
1 0 0 1 0 
1 0 1 1 0 
1 1 0 0 1 
1 0 1 1 0 
1 0 0 1 0 
1 1 0 0 1 
1 0 1 1 0 
1 0 0 1 0 
1 1 0 0 1 
1 0 1 1 0 
1 0 0 1 0 
1 1 0 0 1 
Curves 20
7 0 0  3 4 2  0 0 0  0 0 0  55.047844456893486 6.4250500711355052 3.6000000000000005  73.36956521739134 9.0000000000000018 3.6000000000000005 
 0 4 1 4
7 0 0  3 4 2  73.36956521739134 9.0000000000000018 3.6000000000000005  73.36956521739134 9.0000000000000018 7.9078210486801934  73.36956521739134 4.9705627484771409 11.4  73.36956521739134 0 11.4 
 0 4 1 4
7 0 0  3 4 2  0 0 0  0 0 0  55.047844456893486 4.4408920985006291e-16 8.8250500711355055  73.36956521739134 0 11.4 
 0 4 1 4
7 0 0  3 4 2  73.36956521739134 0 11.4  73.36956521739134 -4.9705627484771409 11.4  73.36956521739134 -9.0000000000000018 7.9078210486801934  73.36956521739134 -9.0000000000000018 3.6000000000000005 
 0 4 1 4
7 0 0  3 4 2  0 0 0  0 0 0  55.047844456893486 -6.4250500711355052 3.6000000000000005  73.36956521739134 -9.0000000000000018 3.6000000000000005 
 0 4 1 4
7 0 0  3 4 2  73.36956521739134 -9.0000000000000018 3.6000000000000005  73.36956521739134 -9.0000000000000018 -0.70782104868018969  73.36956521739134 -4.9705627484771409 -4.2000000000000002  73.36956521739134 0 -4.2000000000000002 
 0 4 1 4
7 0 0  3 4 2  0 0 0  0 0 0  55.047844456893486 -2.2204460492503084e-16 -1.6250500711355043  73.36956521739134 0 -4.2000000000000002 
 0 4 1 4
7 0 0  3 4 2  73.36956521739134 0 -4.2000000000000002  73.36956521739134 4.9705627484771409 -4.2000000000000002  73.36956521739134 9.0000000000000018 -0.70782104868018969  73.36956521739134 9.0000000000000018 3.6000000000000005 
 0 4 1 4
7 0 0  3 28 10  73.36956521739134 9.0000000000000018 3.6000000000000005  73.36956521739134 9.0000000000000018 3.6000000000000005  299.61312359596207 11.767432266391717 9.2307692307692299  375.00000000000006 14.400000000000002 9.2307692307692299  450.38687640403805 17.032567733608321 9.2307692307692299  656.29706451150128 25.089237238745643 10.384615384615381  750.00000000000011 30.000000000000004 10.384615384615381  843.70293548849884 34.910762761254368 10.384615384615381  1031.2239011811025 40.525266469309926 5.3956846153846207  1125.0000000000002 43.800000000000004 5.3956846153846207  1218.7760988189002 47.074733530690089 5.3956846153846207  1406.2909592370002 55.08891727486693 9.6733846153846219  1500.0000000000002 60.000000000000007 9.6733846153846219  1593.7090407630001 64.911082725133085 9.6733846153846219  1958.3683913271361 65.88000000000001 15.174000000000001  2016.7770000000003 65.88000000000001 15.174000000000001  2075.185608672864 65.88000000000001 15.174000000000001  2202.8413561979401 55.542000000000009 7.444430769230773  2250.0000000000005 55.542000000000009 7.444430769230773  2297.1586438020604 55.542000000000009 7.444430769230773  2390.3413561979401 76.200000000000003 12.069230769230764  2437.5000000000005 76.200000000000003 12.069230769230764  2484.6586438020604 76.200000000000003 12.069230769230764  2577.6621035351645 77.550000000000011 21.777853873846205  2625.0000000000005 77.550000000000011 21.777853873846205  2672.3378964648364 77.550000000000011 21.777853873846205  2979.1066479074525 59.270490000000009 24.705494076923046  2994.0000000000005 59.270490000000009 24.705494076923046 
 0 4 1 3 2 3 3 3 4 3 5 3 6 3 7 3 8 3 9 4
7 0 0  3 4 2  2994.0000000000005 59.270490000000009 24.705494076923046  2994.0000000000005 59.270490000000009 26.365494076923124  2994.0000000000005 32.796337800000003 26.076923076923041  2994.0000000000005 0 26.076923076923041 
 0 4 1 4
7 0 0  3 28 10  73.36956521739134 0 11.4  73.36956521739134 0 11.4  299.61312359596207 4.4408920985006291e-16 19.798201497160925  375.00000000000006 0 22.430769230769243  450.38687640403805 -4.4408920985006291e-16 25.063336964377566  656.29706451150128 8.8817841970012582e-16 34.273852623361087  750.00000000000011 0 39.184615384615448  843.70293548849884 -8.8817841970012582e-16 44.095378145869688  1031.2239011811025 6.6613381477509373e-16 45.920951084694487  1125.0000000000002 0 49.195684615384572  1218.7760988189002 -6.6613381477509373e-16 52.470418146074771  1406.1623580099363 0 55.195384615384576  1500.0000000000002 0 55.195384615384576  1593.8376419900642 0 55.195384615384576  1958.3683913271361 0 50.580000000000005  2016.7770000000003 0 50.580000000000005  2075.185608672864 0 50.580000000000005  2202.8413561979401 0 32.457230769230769  2250.0000000000005 0 32.457230769230769  2297.1586438020604 0 32.457230769230769  2390.3413561979401 0 33.369230769230768  2437.5000000000005 0 33.369230769230768  2484.6586438020604 0 33.369230769230768  2577.6621035351645 0 31.813846153846203  2625.0000000000005 0 31.813846153846203  2672.3378964648364 0 31.813846153846203  2979.1066479074525 0 26.076923076923041  2994.0000000000005 0 26.076923076923041 
 0 4 1 3 2 3 3 3 4 3 5 3 6 3 7 3 8 3 9 4
7 0 0  3 4 2  2994.0000000000005 0 26.076923076923041  2994.0000000000005 -32.796337800000003 26.076923076923041  2994.0000000000005 -59.270490000000009 26.365494076923124  2994.0000000000005 -59.270490000000009 24.705494076923046 
 0 4 1 4
7 0 0  3 28 10  73.36956521739134 -9.0000000000000018 3.6000000000000005  73.36956521739134 -9.0000000000000018 3.6000000000000005  299.61312359596207 -11.767432266391717 9.2307692307692299  375.00000000000006 -14.400000000000002 9.2307692307692299  450.38687640403805 -17.032567733608321 9.2307692307692299  656.29706451150128 -25.089237238745643 10.384615384615394  750.00000000000011 -30.000000000000004 10.384615384615381  843.70293548849884 -34.910762761254368 10.384615384615381  1031.2239011811025 -40.525266469309926 5.3956846153846207  1125.0000000000002 -43.800000000000004 5.3956846153846207  1218.7760988189002 -47.074733530690089 5.3956846153846207  1406.2909592370002 -55.08891727486693 9.6733846153846219  1500.0000000000002 -60.000000000000007 9.6733846153846219  1593.7090407630001 -64.911082725133085 9.6733846153846219  1958.3683913271361 -65.88000000000001 15.174000000000001  2016.7770000000003 -65.88000000000001 15.174000000000001  2075.185608672864 -65.88000000000001 15.174000000000001  2202.8413561979401 -55.542000000000009 7.444430769230773  2250.0000000000005 -55.542000000000009 7.444430769230773  2297.1586438020604 -55.542000000000009 7.444430769230773  2390.3413561979401 -76.200000000000003 12.069230769230764  2437.5000000000005 -76.200000000000003 12.069230769230764  2484.6586438020604 -76.200000000000003 12.069230769230764  2577.6621035351645 -77.550000000000011 21.777853873846205  2625.0000000000005 -77.550000000000011 21.777853873846205  2672.3378964648364 -77.550000000000011 21.777853873846205  2979.1066479074525 -59.270490000000009 24.705494076923046  2994.0000000000005 -59.270490000000009 24.705494076923046 
 0 4 1 3 2 3 3 3 4 3 5 3 6 3 7 3 8 3 9 4
7 0 0  3 4 2  2994.0000000000005 -59.270490000000009 24.705494076923046  2994.0000000000005 -59.270490000000009 23.045494076923084  2994.0000000000005 -32.796337800000003 20.076923076923045  2994.0000000000005 0 20.076923076923045 
 0 4 1 4
7 0 0  3 28 10  73.36956521739134 0 -4.2000000000000002  73.36956521739134 0 -4.2000000000000002  299.61312359596207 -2.2204460492503084e-16 -1.3366630356224882  375.00000000000006 0 -3.9692307692307724  450.38687640403805 2.2204460492503084e-16 -6.6017985028390571  656.29706451150128 -4.4408920985006291e-16 -13.504621854130322  750.00000000000011 0 -18.415384615384564  843.70293548849884 4.4408920985006291e-16 -23.326147376638922  1031.2239011811025 -4.4408920985006291e-16 -35.129581853925245  1125.0000000000002 0 -38.404315384615444  1218.7760988189002 4.4408920985006291e-16 -41.679048915305529  1406.1623580099363 0 -45.964615384615449  1500.0000000000002 0 -45.964615384615449  1593.8376419900642 0 -45.964615384615449  1958.3683913271361 0 -50.580000000000005  2016.7770000000003 0 -50.580000000000005  2075.185608672864 0 -50.580000000000005  2202.8413561979401 0 -50.91876923076925  2250.0000000000005 0 -50.91876923076925  2297.1586438020604 0 -50.91876923076925  2390.3413561979401 0 -51.830769230769249  2437.5000000000005 0 -51.830769230769249  2484.6586438020604 0 -51.830769230769249  2578.4375026269004 5.2248906651815769e-16 -23.039047850889485  2625.0000000000005 0 -14.506153846153801  2671.5624973731001 -5.2248906651815769e-16 -5.9732598414181934  2979.1066479074525 0 20.076923076923045  2994.0000000000005 0 20.076923076923045 
 0 4 1 3 2 3 3 3 4 3 5 3 6 3 7 3 8 3 9 4
7 0 0  3 4 2  2994.0000000000005 0 20.076923076923045  2994.0000000000005 32.796337800000003 20.076923076923045  2994.0000000000005 59.270490000000009 23.045494076923084  2994.0000000000005 59.270490000000009 24.705494076923046 
 0 4 1 4
7 0 0  3 4 2  2994.0000000000005 59.270490000000009 24.705494076923046  2994.0000000000005 59.270490000000009 24.705494076923046  3000.0000000000005 0 23.076923076923045  3000.0000000000005 0 23.076923076923045 
 0 4 1 4
7 0 0  3 4 2  2994.0000000000005 0 26.076923076923041  2994.0000000000005 0 26.076923076923041  3000.0000000000005 0 23.076923076923045  3000.0000000000005 0 23.076923076923045 
 0 4 1 4
7 0 0  3 4 2  2994.0000000000005 -59.270490000000009 24.705494076923046  2994.0000000000005 -59.270490000000009 24.705494076923046  3000.0000000000005 0 23.076923076923045  3000.0000000000005 0 23.076923076923045 
 0 4 1 4
7 0 0  3 4 2  2994.0000000000005 0 20.076923076923045  2994.0000000000005 0 20.076923076923045  3000.0000000000005 0 23.076923076923045  3000.0000000000005 0 23.076923076923045 
 0 4 1 4
Polygon3D 0
PolygonOnTriangulations 0
Surfaces 12
9 0 0 0 0 3 3 4 4 2 2 0 0 0  0 0 0  0 0 0  0 0 0  
0 0 0  0 0 0  0 0 0  0 0 0  
55.047844456893486 6.4250500711355052 3.6000000000000005  55.047844456893486 6.4250500711355052 6.6203460842479442  55.047844456893486 3.6830877840448926 8.8250500711355055  55.047844456893486 4.4408920985006291e-16 8.8250500711355055  
73.36956521739134 9.0000000000000018 3.6000000000000005  73.36956521739134 9.0000000000000018 7.9078210486801934  73.36956521739134 4.9705627484771409 11.4  73.36956521739134 0 11.4  

0 4
1 4

0 4
1 4

9 0 0 0 0 3 3 4 4 2 2 0 0 0  0 0 0  0 0 0  0 0 0  
0 0 0  0 0 0  0 0 0  0 0 0  
55.047844456893486 -2.2204460492503084e-16 -1.6250500711355043  55.047844456893486 3.6830877840448926 -1.6250500711355043  55.047844456893486 6.4250500711355052 0.57965391575205605  55.047844456893486 6.4250500711355052 3.6000000000000005  
73.36956521739134 0 -4.2000000000000002  73.36956521739134 4.9705627484771409 -4.2000000000000002  73.36956521739134 9.0000000000000018 -0.70782104868018969  73.36956521739134 9.0000000000000018 3.6000000000000005  

0 4
1 4

0 4
1 4

9 0 0 0 0 3 3 28 4 10 2 73.36956521739134 9.0000000000000018 3.6000000000000005  73.36956521739134 9.0000000000000018 7.9078210486801934  73.36956521739134 4.9705627484771409 11.4  73.36956521739134 0 11.4  
73.36956521739134 9.0000000000000018 3.6000000000000005  73.36956521739134 9.0000000000000018 7.9078210486801934  73.36956521739134 4.9705627484771409 11.4  73.36956521739134 0 11.4  
299.61312359596207 11.767432266391717 9.2307692307692299  299.61312359596207 11.767432266391717 15.204644061731521  299.61312359596207 6.6366165307592899 19.798201497160925  299.61312359596207 4.4408920985006291e-16 19.798201497160925  
375.00000000000006 14.400000000000002 9.2307692307692299  375.00000000000006 14.400000000000002 16.520927928535681  375.00000000000006 7.9529003975634245 22.430769230769243  375.00000000000006 0 22.430769230769243  
450.38687640403805 17.032567733608321 9.2307692307692299  450.38687640403805 17.032567733608321 17.837211795339844  450.38687640403805 9.2691842643675741 25.063336964377566  450.38687640403805 -4.4408920985006291e-16 25.063336964377566  
656.29706451150128 25.089237238745643 10.384615384615381  656.29706451150128 25.089237238745643 23.835034799115125  656.29706451150128 14.113161114296643 34.273852623361087  656.29706451150128 8.8817841970012582e-16 34.273852623361087  
750.00000000000011 30.000000000000004 10.384615384615381  750.00000000000011 30.000000000000004 26.290416179742241  750.00000000000011 16.568542494923761 39.184615384615448  750.00000000000011 0 39.184615384615448  
843.70293548849884 34.910762761254368 10.384615384615381  843.70293548849884 34.910762761254368 28.745797560369365  843.70293548849884 19.023923875551002 44.095378145869688  843.70293548849884 -8.8817841970012582e-16 44.095378145869688  
1031.2239011811025 40.525266469309926 5.3956846153846207  1031.2239011811025 40.525266469309926 27.948389892628324  1031.2239011811025 22.552705277243764 45.920951084694487  1031.2239011811025 6.6613381477509373e-16 45.920951084694487  
1125.0000000000002 43.800000000000004 5.3956846153846207  1125.0000000000002 43.800000000000004 29.585756657973363  1125.0000000000002 24.190072042588803 49.195684615384572  1125.0000000000002 0 49.195684615384572  
1218.7760988189002 47.074733530690089 5.3956846153846207  1218.7760988189002 47.074733530690089 31.223123423318405  1218.7760988189002 25.827438807933845 52.470418146074771  1218.7760988189002 -6.6613381477509373e-16 52.470418146074771  
1406.2909592370002 55.08891727486693 9.6733846153846219  1406.2909592370002 55.08891727486693 37.660984615384571  1406.1623580099363 30.744458637433443 55.195384615384576  1406.1623580099363 0 55.195384615384576  
1500.0000000000002 60.000000000000007 9.6733846153846219  1500.0000000000002 60.000000000000007 37.660984615384571  1500.0000000000002 33.200000000000045 55.195384615384576  1500.0000000000002 0 55.195384615384576  
1593.7090407630001 64.911082725133085 9.6733846153846219  1593.7090407630001 64.911082725133085 37.660984615384571  1593.8376419900642 35.655541362566524 55.195384615384576  1593.8376419900642 0 55.195384615384576  
1958.3683913271361 65.88000000000001 15.174000000000001  1958.3683913271361 65.88000000000001 43.161600000000007  1958.3683913271361 36.453600000000002 50.580000000000005  1958.3683913271361 0 50.580000000000005  
2016.7770000000003 65.88000000000001 15.174000000000001  2016.7770000000003 65.88000000000001 43.161600000000007  2016.7770000000003 36.453600000000002 50.580000000000005  2016.7770000000003 0 50.580000000000005  
2075.185608672864 65.88000000000001 15.174000000000001  2075.185608672864 65.88000000000001 43.161600000000007  2075.185608672864 36.453600000000002 50.580000000000005  2075.185608672864 0 50.580000000000005  
2202.8413561979401 55.542000000000009 7.444430769230773  2202.8413561979401 55.542000000000009 30.511790769230764  2202.8413561979401 30.733239999999963 32.457230769230769  2202.8413561979401 0 32.457230769230769  
2250.0000000000005 55.542000000000009 7.444430769230773  2250.0000000000005 55.542000000000009 30.511790769230764  2250.0000000000005 30.733239999999963 32.457230769230769  2250.0000000000005 0 32.457230769230769  
2297.1586438020604 55.542000000000009 7.444430769230773  2297.1586438020604 55.542000000000009 30.511790769230764  2297.1586438020604 30.733239999999963 32.457230769230769  2297.1586438020604 0 32.457230769230769  
2390.3413561979401 76.200000000000003 12.069230769230764  2390.3413561979401 76.200000000000003 35.641230769230724  2390.3413561979401 42.164000000000044 33.369230769230768  2390.3413561979401 0 33.369230769230768  
2437.5000000000005 76.200000000000003 12.069230769230764  2437.5000000000005 76.200000000000003 35.641230769230724  2437.5000000000005 42.164000000000044 33.369230769230768  2437.5000000000005 0 33.369230769230768  
2484.6586438020604 76.200000000000003 12.069230769230764  2484.6586438020604 76.200000000000003 35.641230769230724  2484.6586438020604 42.164000000000044 33.369230769230768  2484.6586438020604 0 33.369230769230768  
2577.6621035351645 77.550000000000011 21.777853873846205  2577.4682537622243 77.550000000000011 36.726277375030087  2577.6621035351645 42.911000000000051 31.813846153846203  2577.6621035351645 0 31.813846153846203  
2625.0000000000005 77.550000000000011 21.777853873846205  2625.0000000000005 77.550000000000011 34.593053873846166  2625.0000000000005 42.911000000000051 31.813846153846203  2625.0000000000005 0 31.813846153846203  
2672.3378964648364 77.550000000000011 21.777853873846205  2672.5317462377761 77.550000000000011 32.459830372662246  2672.3378964648364 42.911000000000051 31.813846153846203  2672.3378964648364 0 31.813846153846203  
2979.1066479074525 59.270490000000009 24.705494076923046  2979.1066479074525 59.270490000000009 26.365494076923124  2979.1066479074525 32.796337800000003 26.076923076923041  2979.1066479074525 0 26.076923076923041  
2994.0000000000005 59.270490000000009 24.705494076923046  2994.0000000000005 59.270490000000009 26.365494076923124  2994.0000000000005 32.796337800000003 26.076923076923041  2994.0000000000005 0 26.076923076923041  

0 4
1 3
2 3
3 3
4 3
5 3
6 3
7 3
8 3
9 4

0 4
1 4

9 0 0 0 0 3 3 4 4 2 2 0 0 0  0 0 0  0 0 0  0 0 0  
0 0 0  0 0 0  0 0 0  0 0 0  
55.047844456893486 4.4408920985006291e-16 8.8250500711355055  55.047844456893486 -3.6830877840448926 8.8250500711355055  55.047844456893486 -6.4250500711355052 6.6203460842479442  55.047844456893486 -6.4250500711355052 3.6000000000000005  
73.36956521739134 0 11.4  73.36956521739134 -4.9705627484771409 11.4  73.36956521739134 -9.0000000000000018 7.9078210486801934  73.36956521739134 -9.0000000000000018 3.6000000000000005  

0 4
1 4

0 4
1 4

9 0 0 0 0 3 3 28 4 10 2 73.36956521739134 0 11.4  73.36956521739134 -4.9705627484771409 11.4  73.36956521739134 -9.0000000000000018 7.9078210486801934  73.36956521739134 -9.0000000000000018 3.6000000000000005  
73.36956521739134 0 11.4  73.36956521739134 -4.9705627484771409 11.4  73.36956521739134 -9.0000000000000018 7.9078210486801934  73.36956521739134 -9.0000000000000018 3.6000000000000005  
299.61312359596207 4.4408920985006291e-16 19.798201497160925  299.61312359596207 -6.6366165307592899 19.798201497160925  299.61312359596207 -11.767432266391717 15.204644061731521  299.61312359596207 -11.767432266391717 9.2307692307692299  
375.00000000000006 0 22.430769230769243  375.00000000000006 -7.9529003975634245 22.430769230769243  375.00000000000006 -14.400000000000002 16.520927928535681  375.00000000000006 -14.400000000000002 9.2307692307692299  
450.38687640403805 -4.4408920985006291e-16 25.063336964377566  450.38687640403805 -9.2691842643675741 25.063336964377566  450.38687640403805 -17.032567733608321 17.837211795339844  450.38687640403805 -17.032567733608321 9.2307692307692299  
656.29706451150128 8.8817841970012582e-16 34.273852623361087  656.29706451150128 -14.113161114296643 34.273852623361087  656.29706451150128 -25.089237238745643 23.835034799115125  656.29706451150128 -25.089237238745643 10.384615384615394  
750.00000000000011 0 39.184615384615448  750.00000000000011 -16.568542494923761 39.184615384615448  750.00000000000011 -30.000000000000004 26.290416179742241  750.00000000000011 -30.000000000000004 10.384615384615381  
843.70293548849884 -8.8817841970012582e-16 44.095378145869688  843.70293548849884 -19.023923875551002 44.095378145869688  843.70293548849884 -34.910762761254368 28.745797560369365  843.70293548849884 -34.910762761254368 10.384615384615381  
1031.2239011811025 6.6613381477509373e-16 45.920951084694487  1031.2239011811025 -22.552705277243764 45.920951084694487  1031.2239011811025 -40.525266469309926 27.948389892628324  1031.2239011811025 -40.525266469309926 5.3956846153846207  
1125.0000000000002 0 49.195684615384572  1125.0000000000002 -24.190072042588803 49.195684615384572  1125.0000000000002 -43.800000000000004 29.585756657973363  1125.0000000000002 -43.800000000000004 5.3956846153846207  
1218.7760988189002 -6.6613381477509373e-16 52.470418146074771  1218.7760988189002 -25.827438807933845 52.470418146074771  1218.7760988189002 -47.074733530690089 31.223123423318405  1218.7760988189002 -47.074733530690089 5.3956846153846207  
1406.1623580099363 0 55.195384615384576  1406.1623580099363 -30.744458637433443 55.195384615384576  1406.2909592370002 -55.08891727486693 37.660984615384571  1406.2909592370002 -55.08891727486693 9.6733846153846219  
1500.0000000000002 0 55.195384615384576  1500.0000000000002 -33.200000000000045 55.195384615384576  1500.0000000000002 -60.000000000000007 37.660984615384571  1500.0000000000002 -60.000000000000007 9.6733846153846219  
1593.8376419900642 0 55.195384615384576  1593.8376419900642 -35.655541362566524 55.195384615384576  1593.7090407630001 -64.911082725133085 37.660984615384571  1593.7090407630001 -64.911082725133085 9.6733846153846219  
1958.3683913271361 0 50.580000000000005  1958.3683913271361 -36.453600000000002 50.580000000000005  1958.3683913271361 -65.88000000000001 43.161600000000007  1958.3683913271361 -65.88000000000001 15.174000000000001  
2016.7770000000003 0 50.580000000000005  2016.7770000000003 -36.453600000000002 50.580000000000005  2016.7770000000003 -65.88000000000001 43.161600000000007  2016.7770000000003 -65.88000000000001 15.174000000000001  
2075.185608672864 0 50.580000000000005  2075.185608672864 -36.453600000000002 50.580000000000005  2075.185608672864 -65.88000000000001 43.161600000000007  2075.185608672864 -65.88000000000001 15.174000000000001  
2202.8413561979401 0 32.457230769230769  2202.8413561979401 -30.733239999999963 32.457230769230769  2202.8413561979401 -55.542000000000009 30.511790769230764  2202.8413561979401 -55.542000000000009 7.444430769230773  
2250.0000000000005 0 32.457230769230769  2250.0000000000005 -30.733239999999963 32.457230769230769  2250.0000000000005 -55.542000000000009 30.511790769230764  2250.0000000000005 -55.542000000000009 7.444430769230773  
2297.1586438020604 0 32.457230769230769  2297.1586438020604 -30.733239999999963 32.457230769230769  2297.1586438020604 -55.542000000000009 30.511790769230764  2297.1586438020604 -55.542000000000009 7.444430769230773  
2390.3413561979401 0 33.369230769230768  2390.3413561979401 -42.164000000000044 33.369230769230768  2390.3413561979401 -76.200000000000003 35.641230769230724  2390.3413561979401 -76.200000000000003 12.069230769230764  
2437.5000000000005 0 33.369230769230768  2437.5000000000005 -42.164000000000044 33.369230769230768  2437.5000000000005 -76.200000000000003 35.641230769230724  2437.5000000000005 -76.200000000000003 12.069230769230764  
2484.6586438020604 0 33.369230769230768  2484.6586438020604 -42.164000000000044 33.369230769230768  2484.6586438020604 -76.200000000000003 35.641230769230724  2484.6586438020604 -76.200000000000003 12.069230769230764  
2577.6621035351645 0 31.813846153846203  2577.6621035351645 -42.911000000000051 31.813846153846203  2577.4682537622243 -77.550000000000011 36.726277375030087  2577.6621035351645 -77.550000000000011 21.777853873846205  
2625.0000000000005 0 31.813846153846203  2625.0000000000005 -42.911000000000051 31.813846153846203  2625.0000000000005 -77.550000000000011 34.593053873846166  2625.0000000000005 -77.550000000000011 21.777853873846205  
2672.3378964648364 0 31.813846153846203  2672.3378964648364 -42.911000000000051 31.813846153846203  2672.5317462377761 -77.550000000000011 32.459830372662246  2672.3378964648364 -77.550000000000011 21.777853873846205  
2979.1066479074525 0 26.076923076923041  2979.1066479074525 -32.796337800000003 26.076923076923041  2979.1066479074525 -59.270490000000009 26.365494076923124  2979.1066479074525 -59.270490000000009 24.705494076923046  
2994.0000000000005 0 26.076923076923041  2994.0000000000005 -32.796337800000003 26.076923076923041  2994.0000000000005 -59.270490000000009 26.365494076923124  2994.0000000000005 -59.270490000000009 24.705494076923046  

0 4
1 3
2 3
3 3
4 3
5 3
6 3
7 3
8 3
9 4

0 4
1 4

9 0 0 0 0 3 3 4 4 2 2 0 0 0  0 0 0  0 0 0  0 0 0  
0 0 0  0 0 0  0 0 0  0 0 0  
55.047844456893486 -6.4250500711355052 3.6000000000000005  55.047844456893486 -6.4250500711355052 0.57965391575205605  55.047844456893486 -3.6830877840448926 -1.6250500711355043  55.047844456893486 -2.2204460492503084e-16 -1.6250500711355043  
73.36956521739134 -9.0000000000000018 3.6000000000000005  73.36956521739134 -9.0000000000000018 -0.70782104868018969  73.36956521739134 -4.9705627484771409 -4.2000000000000002  73.36956521739134 0 -4.2000000000000002  

0 4
1 4

0 4
1 4

9 0 0 0 0 3 3 28 4 10 2 73.36956521739134 -9.0000000000000018 3.6000000000000005  73.36956521739134 -9.0000000000000018 -0.70782104868018969  73.36956521739134 -4.9705627484771409 -4.2000000000000002  73.36956521739134 0 -4.2000000000000002  
73.36956521739134 -9.0000000000000018 3.6000000000000005  73.36956521739134 -9.0000000000000018 -0.70782104868018969  73.36956521739134 -4.9705627484771409 -4.2000000000000002  73.36956521739134 0 -4.2000000000000002  
299.61312359596207 -11.767432266391717 9.2307692307692299  299.61312359596207 -11.767432266391717 3.2568943998069004  299.61312359596207 -6.6366165307592899 -1.3366630356224882  299.61312359596207 -2.2204460492503084e-16 -1.3366630356224882  
375.00000000000006 -14.400000000000002 9.2307692307692299  375.00000000000006 -14.400000000000002 1.9406105330027523  375.00000000000006 -7.9529003975634245 -3.9692307692307724  375.00000000000006 0 -3.9692307692307724  
450.38687640403805 -17.032567733608321 9.2307692307692299  450.38687640403805 -17.032567733608321 0.62432666619861255  450.38687640403805 -9.2691842643675741 -6.6017985028390571  450.38687640403805 2.2204460492503084e-16 -6.6017985028390571  
656.29706451150128 -25.089237238745643 10.384615384615394  656.29706451150128 -25.089237238745643 -3.0658040298843128  656.29706451150128 -14.113161114296643 -13.504621854130322  656.29706451150128 -4.4408920985006291e-16 -13.504621854130322  
750.00000000000011 -30.000000000000004 10.384615384615381  750.00000000000011 -30.000000000000004 -5.5211854105114693  750.00000000000011 -16.568542494923761 -18.415384615384564  750.00000000000011 0 -18.415384615384564  
843.70293548849884 -34.910762761254368 10.384615384615381  843.70293548849884 -34.910762761254368 -7.9765667911386249  843.70293548849884 -19.023923875551002 -23.326147376638922  843.70293548849884 4.4408920985006291e-16 -23.326147376638922  
1031.2239011811025 -40.525266469309926 5.3956846153846207  1031.2239011811025 -40.525266469309926 -17.157020661859082  1031.2239011811025 -22.552705277243764 -35.129581853925245  1031.2239011811025 -4.4408920985006291e-16 -35.129581853925245  
1125.0000000000002 -43.800000000000004 5.3956846153846207  1125.0000000000002 -43.800000000000004 -18.794387427204121  1125.0000000000002 -24.190072042588803 -38.404315384615444  1125.0000000000002 0 -38.404315384615444  
1218.7760988189002 -47.074733530690089 5.3956846153846207  1218.7760988189002 -47.074733530690089 -20.431754192549164  1218.7760988189002 -25.827438807933845 -41.679048915305529  1218.7760988189002 4.4408920985006291e-16 -41.679048915305529  
1406.2909592370002 -55.08891727486693 9.6733846153846219  1406.2909592370002 -55.08891727486693 -18.314215384615441  1406.1623580099363 -49.544458637433493 -45.964615384615449  1406.1623580099363 0 -45.964615384615449  
1500.0000000000002 -60.000000000000007 9.6733846153846219  1500.0000000000002 -60.000000000000007 -18.314215384615441  1500.0000000000002 -51.999999999999972 -45.964615384615449  1500.0000000000002 0 -45.964615384615449  
1593.7090407630001 -64.911082725133085 9.6733846153846219  1593.7090407630001 -64.911082725133085 -18.314215384615441  1593.8376419900642 -54.455541362566571 -45.964615384615449  1593.8376419900642 0 -45.964615384615449  
1958.3683913271361 -65.88000000000001 15.174000000000001  1958.3683913271361 -65.88000000000001 -12.813600000000003  1958.3683913271361 -57.096000000000011 -50.580000000000005  1958.3683913271361 0 -50.580000000000005  
2016.7770000000003 -65.88000000000001 15.174000000000001  2016.7770000000003 -65.88000000000001 -12.813600000000003  2016.7770000000003 -57.096000000000011 -50.580000000000005  2016.7770000000003 0 -50.580000000000005  
2075.185608672864 -65.88000000000001 15.174000000000001  2075.185608672864 -65.88000000000001 -12.813600000000003  2075.185608672864 -57.096000000000011 -50.580000000000005  2075.185608672864 0 -50.580000000000005  
2202.8413561979401 -55.542000000000009 7.444430769230773  2202.8413561979401 -55.542000000000009 -15.622929230769243  2202.8413561979401 -51.839199999999963 -50.91876923076925  2202.8413561979401 0 -50.91876923076925  
2250.0000000000005 -55.542000000000009 7.444430769230773  2250.0000000000005 -55.542000000000009 -15.622929230769243  2250.0000000000005 -51.839199999999963 -50.91876923076925  2250.0000000000005 0 -50.91876923076925  
2297.1586438020604 -55.542000000000009 7.444430769230773  2297.1586438020604 -55.542000000000009 -15.622929230769243  2297.1586438020604 -51.839199999999963 -50.91876923076925  2297.1586438020604 0 -50.91876923076925  
2390.3413561979401 -76.200000000000003 12.069230769230764  2390.3413561979401 -76.200000000000003 -11.502769230769237  2390.3413561979401 -71.120000000000047 -51.830769230769249  2390.3413561979401 0 -51.830769230769249  
2437.5000000000005 -76.200000000000003 12.069230769230764  2437.5000000000005 -76.200000000000003 -11.502769230769237  2437.5000000000005 -71.120000000000047 -51.830769230769249  2437.5000000000005 0 -51.830769230769249  
2484.6586438020604 -76.200000000000003 12.069230769230764  2484.6586438020604 -76.200000000000003 -11.502769230769237  2484.6586438020604 -71.120000000000047 -51.830769230769249  2484.6586438020604 0 -51.830769230769249  
2577.6621035351645 -77.550000000000011 21.777853873846205  2577.8559533080925 -77.550000000000011 6.8294303726622498  2578.4375026269004 -42.911000000000051 -23.039047850889485  2578.4375026269004 5.2248906651815769e-16 -23.039047850889485  
2625.0000000000005 -77.550000000000011 21.777853873846205  2625.0000000000005 -77.550000000000011 8.9626538738461576  2625.0000000000005 -42.911000000000051 -14.506153846153801  2625.0000000000005 0 -14.506153846153801  
2672.3378964648364 -77.550000000000011 21.777853873846205  2672.1440466919084 -77.550000000000011 11.095877375030065  2671.5624973731001 -42.911000000000051 -5.9732598414181934  2671.5624973731001 -5.2248906651815769e-16 -5.9732598414181934  
2979.1066479074525 -59.270490000000009 24.705494076923046  2979.1066479074525 -59.270490000000009 23.045494076923084  2979.1066479074525 -32.796337800000003 20.076923076923045  2979.1066479074525 0 20.076923076923045  
2994.0000000000005 -59.270490000000009 24.705494076923046  2994.0000000000005 -59.270490000000009 23.045494076923084  2994.0000000000005 -32.796337800000003 20.076923076923045  2994.0000000000005 0 20.076923076923045  

0 4
1 3
2 3
3 3
4 3
5 3
6 3
7 3
8 3
9 4

0 4
1 4

9 0 0 0 0 3 3 28 4 10 2 73.36956521739134 0 -4.2000000000000002  73.36956521739134 4.9705627484771409 -4.2000000000000002  73.36956521739134 9.0000000000000018 -0.70782104868018969  73.36956521739134 9.0000000000000018 3.6000000000000005  
73.36956521739134 0 -4.2000000000000002  73.36956521739134 4.9705627484771409 -4.2000000000000002  73.36956521739134 9.0000000000000018 -0.70782104868018969  73.36956521739134 9.0000000000000018 3.6000000000000005  
299.61312359596207 -2.2204460492503084e-16 -1.3366630356224882  299.61312359596207 6.6366165307592899 -1.3366630356224882  299.61312359596207 11.767432266391717 3.2568943998069004  299.61312359596207 11.767432266391717 9.2307692307692299  
375.00000000000006 0 -3.9692307692307724  375.00000000000006 7.9529003975634245 -3.9692307692307724  375.00000000000006 14.400000000000002 1.9406105330027523  375.00000000000006 14.400000000000002 9.2307692307692299  
450.38687640403805 2.2204460492503084e-16 -6.6017985028390571  450.38687640403805 9.2691842643675741 -6.6017985028390571  450.38687640403805 17.032567733608321 0.62432666619861255  450.38687640403805 17.032567733608321 9.2307692307692299  
656.29706451150128 -4.4408920985006291e-16 -13.504621854130322  656.29706451150128 14.113161114296643 -13.504621854130322  656.29706451150128 25.089237238745643 -3.0658040298843128  656.29706451150128 25.089237238745643 10.384615384615381  
750.00000000000011 0 -18.415384615384564  750.00000000000011 16.568542494923761 -18.415384615384564  750.00000000000011 30.000000000000004 -5.5211854105114693  750.00000000000011 30.000000000000004 10.384615384615381  
843.70293548849884 4.4408920985006291e-16 -23.326147376638922  843.70293548849884 19.023923875551002 -23.326147376638922  843.70293548849884 34.910762761254368 -7.9765667911386249  843.70293548849884 34.910762761254368 10.384615384615381  
1031.2239011811025 -4.4408920985006291e-16 -35.129581853925245  1031.2239011811025 22.552705277243764 -35.129581853925245  1031.2239011811025 40.525266469309926 -17.157020661859082  1031.2239011811025 40.525266469309926 5.3956846153846207  
1125.0000000000002 0 -38.404315384615444  1125.0000000000002 24.190072042588803 -38.404315384615444  1125.0000000000002 43.800000000000004 -18.794387427204121  1125.0000000000002 43.800000000000004 5.3956846153846207  
1218.7760988189002 4.4408920985006291e-16 -41.679048915305529  1218.7760988189002 25.827438807933845 -41.679048915305529  1218.7760988189002 47.074733530690089 -20.431754192549164  1218.7760988189002 47.074733530690089 5.3956846153846207  
1406.1623580099363 0 -45.964615384615449  1406.1623580099363 49.544458637433493 -45.964615384615449  1406.2909592370002 55.08891727486693 -18.314215384615441  1406.2909592370002 55.08891727486693 9.6733846153846219  
1500.0000000000002 0 -45.964615384615449  1500.0000000000002 51.999999999999972 -45.964615384615449  1500.0000000000002 60.000000000000007 -18.314215384615441  1500.0000000000002 60.000000000000007 9.6733846153846219  
1593.8376419900642 0 -45.964615384615449  1593.8376419900642 54.455541362566571 -45.964615384615449  1593.7090407630001 64.911082725133085 -18.314215384615441  1593.7090407630001 64.911082725133085 9.6733846153846219  
1958.3683913271361 0 -50.580000000000005  1958.3683913271361 57.096000000000011 -50.580000000000005  1958.3683913271361 65.88000000000001 -12.813600000000003  1958.3683913271361 65.88000000000001 15.174000000000001  
2016.7770000000003 0 -50.580000000000005  2016.7770000000003 57.096000000000011 -50.580000000000005  2016.7770000000003 65.88000000000001 -12.813600000000003  2016.7770000000003 65.88000000000001 15.174000000000001  
2075.185608672864 0 -50.580000000000005  2075.185608672864 57.096000000000011 -50.580000000000005  2075.185608672864 65.88000000000001 -12.813600000000003  2075.185608672864 65.88000000000001 15.174000000000001  
2202.8413561979401 0 -50.91876923076925  2202.8413561979401 51.839199999999963 -50.91876923076925  2202.8413561979401 55.542000000000009 -15.622929230769243  2202.8413561979401 55.542000000000009 7.444430769230773  
2250.0000000000005 0 -50.91876923076925  2250.0000000000005 51.839199999999963 -50.91876923076925  2250.0000000000005 55.542000000000009 -15.622929230769243  2250.0000000000005 55.542000000000009 7.444430769230773  
2297.1586438020604 0 -50.91876923076925  2297.1586438020604 51.839199999999963 -50.91876923076925  2297.1586438020604 55.542000000000009 -15.622929230769243  2297.1586438020604 55.542000000000009 7.444430769230773  
2390.3413561979401 0 -51.830769230769249  2390.3413561979401 71.120000000000047 -51.830769230769249  2390.3413561979401 76.200000000000003 -11.502769230769237  2390.3413561979401 76.200000000000003 12.069230769230764  
2437.5000000000005 0 -51.830769230769249  2437.5000000000005 71.120000000000047 -51.830769230769249  2437.5000000000005 76.200000000000003 -11.502769230769237  2437.5000000000005 76.200000000000003 12.069230769230764  
2484.6586438020604 0 -51.830769230769249  2484.6586438020604 71.120000000000047 -51.830769230769249  2484.6586438020604 76.200000000000003 -11.502769230769237  2484.6586438020604 76.200000000000003 12.069230769230764  
2578.4375026269004 5.2248906651815769e-16 -23.039047850889485  2578.4375026269004 42.911000000000051 -23.039047850889485  2577.8559533080925 77.550000000000011 6.8294303726622498  2577.6621035351645 77.550000000000011 21.777853873846205  
2625.0000000000005 0 -14.506153846153801  2625.0000000000005 42.911000000000051 -14.506153846153801  2625.0000000000005 77.550000000000011 8.9626538738461576  2625.0000000000005 77.550000000000011 21.777853873846205  
2671.5624973731001 -5.2248906651815769e-16 -5.9732598414181934  2671.5624973731001 42.911000000000051 -5.9732598414181934  2672.1440466919084 77.550000000000011 11.095877375030065  2672.3378964648364 77.550000000000011 21.777853873846205  
2979.1066479074525 0 20.076923076923045  2979.1066479074525 32.796337800000003 20.076923076923045  2979.1066479074525 59.270490000000009 23.045494076923084  2979.1066479074525 59.270490000000009 24.705494076923046  
2994.0000000000005 0 20.076923076923045  2994.0000000000005 32.796337800000003 20.076923076923045  2994.0000000000005 59.270490000000009 23.045494076923084  2994.0000000000005 59.270490000000009 24.705494076923046  

0 4
1 3
2 3
3 3
4 3
5 3
6 3
7 3
8 3
9 4

0 4
1 4

9 0 0 0 0 3 3 4 4 2 2 2994.0000000000005 59.270490000000009 24.705494076923046  2994.0000000000005 59.270490000000009 26.365494076923124  2994.0000000000005 32.796337800000003 26.076923076923041  2994.0000000000005 0 26.076923076923041  
2994.0000000000005 59.270490000000009 24.705494076923046  2994.0000000000005 59.270490000000009 26.365494076923124  2994.0000000000005 32.796337800000003 26.076923076923041  2994.0000000000005 0 26.076923076923041  
3000.0000000000005 0 23.076923076923045  3000.0000000000005 0 23.076923076923045  3000.0000000000005 0 23.076923076923045  3000.0000000000005 0 23.076923076923045  
3000.0000000000005 0 23.076923076923045  3000.0000000000005 0 23.076923076923045  3000.0000000000005 0 23.076923076923045  3000.0000000000005 0 23.076923076923045  

0 4
1 4

0 4
1 4

9 0 0 0 0 3 3 4 4 2 2 2994.0000000000005 0 26.076923076923041  2994.0000000000005 -32.796337800000003 26.076923076923041  2994.0000000000005 -59.270490000000009 26.365494076923124  2994.0000000000005 -59.270490000000009 24.705494076923046  
2994.0000000000005 0 26.076923076923041  2994.0000000000005 -32.796337800000003 26.076923076923041  2994.0000000000005 -59.270490000000009 26.365494076923124  2994.0000000000005 -59.270490000000009 24.705494076923046  
3000.0000000000005 0 23.076923076923045  3000.0000000000005 0 23.076923076923045  3000.0000000000005 0 23.076923076923045  3000.0000000000005 0 23.076923076923045  
3000.0000000000005 0 23.076923076923045  3000.0000000000005 0 23.076923076923045  3000.0000000000005 0 23.076923076923045  3000.0000000000005 0 23.076923076923045  

0 4
1 4

0 4
1 4

9 0 0 0 0 3 3 4 4 2 2 2994.0000000000005 -59.270490000000009 24.705494076923046  2994.0000000000005 -59.270490000000009 23.045494076923084  2994.0000000000005 -32.796337800000003 20.076923076923045  2994.0000000000005 0 20.076923076923045  
2994.0000000000005 -59.270490000000009 24.705494076923046  2994.0000000000005 -59.270490000000009 23.045494076923084  2994.0000000000005 -32.796337800000003 20.076923076923045  2994.0000000000005 0 20.076923076923045  
3000.0000000000005 0 23.076923076923045  3000.0000000000005 0 23.076923076923045  3000.0000000000005 0 23.076923076923045  3000.0000000000005 0 23.076923076923045  
3000.0000000000005 0 23.076923076923045  3000.0000000000005 0 23.076923076923045  3000.0000000000005 0 23.076923076923045  3000.0000000000005 0 23.076923076923045  

0 4
1 4

0 4
1 4

9 0 0 0 0 3 3 4 4 2 2 2994.0000000000005 0 20.076923076923045  2994.0000000000005 32.796337800000003 20.076923076923045  2994.0000000000005 59.270490000000009 23.045494076923084  2994.0000000000005 59.270490000000009 24.705494076923046  
2994.0000000000005 0 20.076923076923045  2994.0000000000005 32.796337800000003 20.076923076923045  2994.0000000000005 59.270490000000009 23.045494076923084  2994.0000000000005 59.270490000000009 24.705494076923046  
3000.0000000000005 0 23.076923076923045  3000.0000000000005 0 23.076923076923045  3000.0000000000005 0 23.076923076923045  3000.0000000000005 0 23.076923076923045  
3000.0000000000005 0 23.076923076923045  3000.0000000000005 0 23.076923076923045  3000.0000000000005 0 23.076923076923045  3000.0000000000005 0 23.076923076923045  

0 4
1 4

0 4
1 4

Triangulations 0

TShapes 63
Ve
1.00000001302617e-07
-3.5527136788005e-15 3.6473267190253e-16 -5.84378203176438e-16
0 0

0101101
*
Ed
 1e-07 1 1 1
2  1 1 0 0 1
0

0101000
+63 0 -63 0 *
Ve
1.00000000666134e-07
73.3695652173913 9 3.6
0 0

0101101
*
Ed
 1e-07 1 1 0
1  1 0 0 1
2  2 1 0 0 1
2  3 2 0 0 1
0

0101000
+63 0 -61 0 *
Ve
1.00000002226725e-07
73.3695652173913 -1.59632465875179e-16 11.4
0 0

0101101
*
Ed
 1e-07 1 1 0
1  2 0 0 1
2  4 1 0 0 1
2  5 3 0 0 1
0

0101000
+61 0 -59 0 *
Ed
 1e-07 1 1 0
1  3 0 0 1
2  6 1 0 0 1
2  7 4 0 0 1
0

0101000
+63 0 -59 0 *
Wi

0101100
-62 0 +60 0 +58 0 -57 0 *
Fa
1  1e-07 1 0

0111000
+56 0 *
Ed
 1e-07 1 1 1
2  8 4 0 0 1
0

0101000
+63 0 -63 0 *
Ve
1.00000001332268e-07
73.3695652173913 -9 3.6
0 0

0101101
*
Ed
 1e-07 1 1 0
1  4 0 0 1
2  9 4 0 0 1
2  10 5 0 0 1
0

0101000
+59 0 -53 0 *
Ed
 1e-07 1 1 0
1  5 0 0 1
2  11 4 0 0 1
2  12 6 0 0 1
0

0101000
+63 0 -53 0 *
Wi

0101100
-54 0 +57 0 +52 0 -51 0 *
Fa
1  1e-07 4 0

0101000
+50 0 *
Ed
 1e-07 1 1 1
2  13 6 0 0 1
0

0101000
+63 0 -63 0 *
Ve
1.0000000066959e-07
73.3695652173913 -2.79699075924159e-17 -4.2
0 0

0101101
*
Ed
 1e-07 1 1 0
1  6 0 0 1
2  14 6 0 0 1
2  15 7 0 0 1
0

0101000
+53 0 -47 0 *
Ed
 1e-07 1 1 0
1  7 0 0 1
2  16 6 0 0 1
2  17 2 0 0 1
0

0101000
+63 0 -47 0 *
Wi

0101100
-48 0 +51 0 +46 0 -45 0 *
Fa
1  1e-07 6 0

0101000
+44 0 *
Ed
 1e-07 1 1 1
2  18 2 0 0 1
0

0101000
+63 0 -63 0 *
Ed
 1e-07 1 1 0
1  8 0 0 1
2  19 2 0 0 1
2  20 8 0 0 1
0

0101000
+47 0 -61 0 *
Wi

0101100
-42 0 +45 0 +41 0 -60 0 *
Fa
1  1e-07 2 0

0101000
+40 0 *
Ve
1.00000007536444e-07
2994 59.27049 24.705494076923
0 0

0101101
*
Ed
 1e-07 1 1 0
1  9 0 0 9
2  21 3 0 0 9
2  22 8 0 0 9
0

0101000
+61 0 -38 0 *
Ve
1.00000342249138e-07
2994 2.87414812516594e-15 26.076923076923
0 0

0101101
*
Ed
 1e-07 1 1 0
1  10 0 0 1
2  23 3 0 0 1
2  24 9 0 0 1
0

0101000
+38 0 -36 0 *
Ed
 1e-07 1 1 0
1  11 0 0 9
2  25 3 0 0 9
2  26 5 0 0 9
0

0101000
+59 0 -36 0 *
Wi

0101100
-58 0 +37 0 +35 0 -34 0 *
Fa
1  1e-07 3 0

0111000
+33 0 *
Ve
1.00000397955962e-07
2994 -59.27049 24.705494076923
0 0

0101101
*
Ed
 1e-07 1 1 0
1  12 0 0 1
2  27 5 0 0 1
2  28 10 0 0 1
0

0101000
+36 0 -31 0 *
Ed
 1e-07 1 1 0
1  13 0 0 9
2  29 5 0 0 9
2  30 7 0 0 9
0

0101000
+53 0 -31 0 *
Wi

0101100
-52 0 +34 0 +30 0 -29 0 *
Fa
1  1e-07 5 0

0111000
+28 0 *
Ve
1.00000341130054e-07
2994 -2.53563471712266e-15 20.076923076923
0 0

0101101
*
Ed
 1e-07 1 1 0
1  14 0 0 1
2  31 7 0 0 1
2  32 11 0 0 1
0

0101000
+31 0 -26 0 *
Ed
 1e-07 1 1 0
1  15 0 0 9
2  33 7 0 0 9
2  34 8 0 0 9
0

0101000
+47 0 -26 0 *
Wi

0101100
-46 0 +29 0 +25 0 -24 0 *
Fa
1  1e-07 7 0

0111000
+23 0 *
Ed
 1e-07 1 1 0
1  16 0 0 1
2  35 8 0 0 1
2  36 12 0 0 1
0

0101000
+26 0 -38 0 *
Wi

0101100
-41 0 +24 0 +21 0 -37 0 *
Fa
1  1e-07 8 0

0111000
+20 0 *
Ve
1.00000005329071e-07
3000 0 23.076923076923
0 0

0101101
*
Ed
 1e-07 1 1 0
1  17 0 0 1
2  37 9 0 0 1
2  38 12 0 0 1
0

0101000
+38 0 -18 0 *
Ed
 1e-07 1 1 1
2  39 9 0 0 1
0

0101000
+18 0 -18 0 *
Ed
 1e-07 1 1 0
1  18 0 0 1
2  40 9 0 0 1
2  41 10 0 0 1
0

0101000
+36 0 -18 0 *
Wi

0101100
-35 0 +17 0 +16 0 -15 0 *
Fa
1  1e-07 9 0

0101000
+14 0 *
Ed
 1e-07 1 1 1
2  42 10 0 0 1
0

0101000
+18 0 -18 0 *
Ed
 1e-07 1 1 0
1  19 0 0 1
2  43 10 0 0 1
2  44 11 0 0 1
0

0101000
+31 0 -18 0 *
Wi

0101100
-30 0 +15 0 +12 0 -11 0 *
Fa
1  1e-07 10 0

0101000
+10 0 *
Ed
 1e-07 1 1 1
2  45 11 0 0 1
0

0101000
+18 0 -18 0 *
Ed
 1e-07 1 1 0
1  20 0 0 1
2  46 11 0 0 1
2  47 12 0 0 1
0

0101000
+26 0 -18 0 *
Wi

0101100
-25 0 +11 0 +8 0 -7 0 *
Fa
1  1e-07 11 0

0101000
+6 0 *
Ed
 1e-07 1 1 1
2  48 12 0 0 1
0

0101000
+18 0 -18 0 *
Wi

0101100
-21 0 +7 0 +4 0 -17 0 *
Fa
1  1e-07 12 0

0101000
+3 0 *
Sh

0101000
+55 0 +49 0 +43 0 +39 0 +32 0 +27 0 +22 0 +19 0 +13 0 +9 0 
+5 0 +2 0 *

-1 0 