DBRep_DrawableShape

CASCADE Topology V1, (c) Matra-Datavision
Locations 0
Curve2ds 32
1 0 0 0 1 
1 0 0 1 0 
1 0 1 1 0 
1 3 0 0 1 
1 0 0 0 1 
1 0 1 1 0 
1 0 0 1 0 
1 0 0 0 1 
1 3 0 0 1 
1 0 0 0 1 
1 0 1 1 0 
1 0 0 1 0 
1 0 0 0 1 
1 3 0 0 1 
1 0 0 0 1 
1 0 1 1 0 
1 0 0 1 0 
1 0 0 0 1 
1 3 0 0 1 
1 0 0 0 1 
1 0 0 1 0 
1 0 1 1 0 
1 3 0 0 1 
8 0 1
1 3 1 -0 -1 
1 0 1 1 0 
1 0 0 1 0 
1 0 1 1 0 
1 0 0 1 0 
1 3 0 0 1 
8 0 1
1 3 1 -0 -1 
1 0 1 1 0 
1 0 0 1 0 
Curves 14
7 0 0  3 10 4  0 0 -36.000000000000007  1.7521328090385362 100.37962140181311 -36.000000000000007  280.51333596681002 121.98 0  380.90824800000001 121.98 0  481.30316003319007 121.98 0  1723.6200856773844 121.98 0  1755.2219160000004 121.98 0  1771.0228311613084 121.98 0  1794.6995275806601 121.48500000000001 0.60000000000000009  1818.3762240000003 120.99000000000001 1.2000000000000002 
 0 4 1 3 2 3 3 4
7 0 0  3 4 2  1818.3762240000003 120.99000000000001 1.2000000000000002  1818.3762240000003 120.99000000000001 67.358190182230814  1818.3762240000003 66.820931882027764 120.99000000000001  1818.3762240000003 0 120.99000000000001 
 0 4 1 4
7 0 0  3 10 4  0 0 -36.000000000000007  1.7521328090385362 -2.1316282072803002e-14 64.379621401813083  280.51333596681002 0 121.98  380.90824800000001 0 121.98  481.30316003319007 0 121.98  1723.6200856773844 0 121.98  1755.2219160000004 0 121.98  1771.0228311613084 0 121.98  1794.6995275806601 0 121.48500000000001  1818.3762240000003 0 120.99000000000001 
 0 4 1 3 2 3 3 4
7 0 0  3 4 2  1818.3762240000003 0 120.99000000000001  1818.3762240000003 -66.820931882027764 120.99000000000001  1818.3762240000003 -120.99000000000001 67.358190182230814  1818.3762240000003 -120.99000000000001 1.2000000000000002 
 0 4 1 4
7 0 0  3 10 4  0 0 -36.000000000000007  1.7521328090385122 -100.37962140181311 -36.000000000000007  280.51333596681002 -121.98 0  380.90824800000001 -121.98 0  481.30316003319007 -121.98 0  1723.6200856773844 -121.98 0  1755.2219160000004 -121.98 0  1771.0228311613084 -121.98 0  1794.6995275806601 -121.48500000000001 0.60000000000000009  1818.3762240000003 -120.99000000000001 1.2000000000000002 
 0 4 1 3 2 3 3 4
7 0 0  3 4 2  1818.3762240000003 -120.99000000000001 1.2000000000000002  1818.3762240000003 -120.99000000000001 -64.958190182230808  1818.3762240000003 -66.820931882027764 -118.59000000000002  1818.3762240000003 0 -118.59000000000002 
 0 4 1 4
7 0 0  3 10 4  -2.2204460492503084e-16 0 -36.000000000000007  1.7521328090385362 1.4210854715202002e-14 -136.37962140181321  280.51333596681002 0 -121.98  380.90824800000001 0 -121.98  481.30316003319007 0 -121.98  1723.6200856773844 0 -121.98  1755.2219160000004 0 -121.98  1771.0228311613084 0 -121.98  1794.6995275806601 0 -120.28500000000001  1818.3762240000003 0 -118.59000000000002 
 0 4 1 3 2 3 3 4
7 0 0  3 4 2  1818.3762240000003 0 -118.59000000000002  1818.3762240000003 66.820931882027764 -118.59000000000002  1818.3762240000003 120.99000000000001 -64.958190182230808  1818.3762240000003 120.99000000000001 1.2000000000000002 
 0 4 1 4
7 0 0  3 10 4  1818.3762240000003 120.99000000000001 1.2000000000000002  1842.0529204193404 120.49500000000002 1.8000000000000003  1865.7296168386922 120.00000000000001 2.4000000000000004  1881.5305320000002 120.00000000000001 2.4000000000000004  1913.0121078173884 117.24571900604654 2.4000000000000004  2129.9344906702322 85.003258758712448 23.601612000000003  2179.7652660000003 78.000000000000014 23.601612000000003  2229.8942722279803 73.614280241231654 23.601612000000003  2403.4498738081925 19.975646108733365 40.335036000000009  2478.0000000000005 0 40.335036000000009 
 0 4 1 3 2 3 3 4
7 0 0  3 4 2  2478.0000000000005 0 40.335036000000009  2478.0000000000005 0 52.849889064739216  2478.0000000000005 0 62.995182000000014  2478.0000000000005 0 62.995182000000014 
 0 4 1 4
7 0 0  3 10 4  1818.3762240000003 0 120.99000000000001  1842.0529204193404 0 120.49500000000002  1865.7296168386922 0 120.00000000000001  1881.5305320000002 0 120.00000000000001  1913.0121078173884 4.4408920985006291e-16 117.24571900604654  2129.9344906702322 -1.7763568394002564e-15 108.52067275871245  2179.7652660000003 0 101.51741400000002  2229.8942722279803 8.8817841970012582e-16 97.131694241231656  2403.4498738081925 -3.5527136788005005e-15 82.970828108733372  2478.0000000000005 0 62.995182000000014 
 0 4 1 3 2 3 3 4
7 0 0  3 10 4  1818.3762240000003 -120.99000000000001 1.2000000000000002  1842.0529204193404 -120.49500000000002 1.8000000000000003  1865.7296168386922 -120.00000000000001 2.4000000000000004  1881.5305320000002 -120.00000000000001 2.4000000000000004  1913.0121078173884 -117.24571900604654 2.4000000000000004  2129.9344906702322 -85.003258758712448 23.601612000000003  2179.7652660000003 -78.000000000000014 23.601612000000003  2229.8942722279803 -73.614280241231654 23.601612000000003  2403.4498738081925 -19.975646108733365 40.335036000000009  2478.0000000000005 0 40.335036000000009 
 0 4 1 3 2 3 3 4
7 0 0  3 4 2  2478.0000000000005 0 40.335036000000009  2478.0000000000005 0 27.820182935260807  2478.0000000000005 0 17.674890000000001  2478.0000000000005 0 17.674890000000001 
 0 4 1 4
7 0 0  3 10 4  1818.3762240000003 0 -118.59000000000002  1842.0529204193404 0 -116.89500000000002  1865.7296168386922 0 -115.20000000000002  1881.5305320000002 0 -115.20000000000002  1913.0121078173884 -2.2204460492503084e-16 -112.44571900604653  2129.9344906702322 0 -61.317448758712452  2179.7652660000003 0 -54.314190000000011  2229.8942722279803 0 -49.928470241231651  2403.4498738081925 0 -2.3007561087333483  2478.0000000000005 0 17.674890000000001 
 0 4 1 3 2 3 3 4
Polygon3D 0
PolygonOnTriangulations 0
Surfaces 8
9 0 0 0 0 3 3 10 4 4 2 0 0 -36.000000000000007  0 0 -36.000000000000007  0 0 -36.000000000000007  0 0 -36.000000000000007  
1.7521328090385362 100.37962140181311 -36.000000000000007  1.7521328090385362 100.37962140181311 14.189810700906603  1.7521328090385362 50.189810700906605 64.379621401813083  1.7521328090385362 -2.1316282072803002e-14 64.379621401813083  
280.51333596681002 121.98 0  280.51333596681002 121.98 67.367693784360256  280.51333596681002 67.367693784360256 121.98  280.51333596681002 0 121.98  
380.90824800000001 121.98 0  380.90824800000001 121.98 67.367693784360256  380.90824800000001 67.367693784360256 121.98  380.90824800000001 0 121.98  
481.30316003319007 121.98 0  481.30316003319007 121.98 67.367693784360256  481.30316003319007 67.367693784360256 121.98  481.30316003319007 0 121.98  
1723.6200856773844 121.98 0  1723.6200856773844 121.98 67.367693784360256  1723.6200856773844 67.367693784360256 121.98  1723.6200856773844 0 121.98  
1755.2219160000004 121.98 0  1755.2219160000004 121.98 67.367693784360256  1755.2219160000004 67.367693784360256 121.98  1755.2219160000004 0 121.98  
1771.0228311613084 121.98 0  1771.0228311613084 121.98 67.367693784360256  1771.0228311613084 67.367693784360256 121.98  1771.0228311613084 0 121.98  
1794.6995275806601 121.48500000000001 0.60000000000000009  1794.6995275806601 121.48500000000001 67.362941983295528  1794.6995275806601 67.09431283319401 121.48500000000001  1794.6995275806601 0 121.48500000000001  
1818.3762240000003 120.99000000000001 1.2000000000000002  1818.3762240000003 120.99000000000001 67.358190182230814  1818.3762240000003 66.820931882027764 120.99000000000001  1818.3762240000003 0 120.99000000000001  

0 4
1 3
2 3
3 4

0 4
1 4

9 0 0 0 0 3 3 10 4 4 2 -2.2204460492503084e-16 0 -36.000000000000007  0 0 -36.000000000000007  -2.2204460492503084e-16 0 -36.000000000000007  0 0 -36.000000000000007  
1.7521328090385362 1.4210854715202002e-14 -136.37962140181321  1.7521328090385362 50.189810700906605 -136.37962140181321  1.7521328090385362 100.37962140181311 -86.189810700906605  1.7521328090385362 100.37962140181311 -36.000000000000007  
280.51333596681002 0 -121.98  280.51333596681002 67.367693784360256 -121.98  280.51333596681002 121.98 -67.367693784360256  280.51333596681002 121.98 0  
380.90824800000001 0 -121.98  380.90824800000001 67.367693784360256 -121.98  380.90824800000001 121.98 -67.367693784360256  380.90824800000001 121.98 0  
481.30316003319007 0 -121.98  481.30316003319007 67.367693784360256 -121.98  481.30316003319007 121.98 -67.367693784360256  481.30316003319007 121.98 0  
1723.6200856773844 0 -121.98  1723.6200856773844 67.367693784360256 -121.98  1723.6200856773844 121.98 -67.367693784360256  1723.6200856773844 121.98 0  
1755.2219160000004 0 -121.98  1755.2219160000004 67.367693784360256 -121.98  1755.2219160000004 121.98 -67.367693784360256  1755.2219160000004 121.98 0  
1771.0228311613084 0 -121.98  1771.0228311613084 67.367693784360256 -121.98  1771.0228311613084 121.98 -67.367693784360256  1771.0228311613084 121.98 0  
1794.6995275806601 0 -120.28500000000001  1794.6995275806601 67.09431283319401 -120.28500000000001  1794.6995275806601 121.48500000000001 -66.162941983295525  1794.6995275806601 121.48500000000001 0.60000000000000009  
1818.3762240000003 0 -118.59000000000002  1818.3762240000003 66.820931882027764 -118.59000000000002  1818.3762240000003 120.99000000000001 -64.958190182230808  1818.3762240000003 120.99000000000001 1.2000000000000002  

0 4
1 3
2 3
3 4

0 4
1 4

9 0 0 0 0 3 3 10 4 4 2 1818.3762240000003 120.99000000000001 1.2000000000000002  1818.3762240000003 120.99000000000001 67.358190182230814  1818.3762240000003 66.820931882027764 120.99000000000001  1818.3762240000003 0 120.99000000000001  
1842.0529204193404 120.49500000000002 1.8000000000000003  1842.0529204193404 120.49500000000002 67.353438381166086  1842.0529204193404 66.547550930861519 120.49500000000002  1842.0529204193404 0 120.49500000000002  
1865.7296168386922 120.00000000000001 2.4000000000000004  1865.7296168386922 120.00000000000001 67.348686580101372  1865.7296168386922 66.274169979695287 120.00000000000001  1865.7296168386922 0 120.00000000000001  
1881.5305320000002 120.00000000000001 2.4000000000000004  1881.5305320000002 120.00000000000001 67.348686580101372  1881.5305320000002 66.274169979695287 120.00000000000001  1881.5305320000002 0 120.00000000000001  
1913.0121078173884 117.24571900604654 2.4000000000000004  1913.0121078173884 117.24571900604654 65.971546083124565  1913.0121078173884 64.897029482718494 117.24571900604654  1913.0121078173884 4.4408920985006291e-16 117.24571900604654  
2129.9344906702322 85.003258758712448 23.601612000000003  2129.9344906702322 85.003258758712448 70.134950594791803  2129.9344906702322 46.579839866158089 108.52067275871245  2129.9344906702322 -1.7763568394002564e-15 108.52067275871245  
2179.7652660000003 78.000000000000014 23.601612000000003  2179.7652660000003 78.000000000000014 66.633321215435657  2179.7652660000003 43.078210486801929 101.51741400000002  2179.7652660000003 0 101.51741400000002  
2229.8942722279803 73.614280241231654 23.601612000000003  2229.8942722279803 73.614280241231654 64.440461336051527  2229.8942722279803 40.885350607417685 97.131694241231656  2229.8942722279803 8.8817841970012582e-16 97.131694241231656  
2403.4498738081925 19.975646108733365 40.335036000000009  2403.4498738081925 19.975646108733365 62.837712119105895  2403.4498738081925 9.9878230543666824 82.970828108733372  2403.4498738081925 -3.5527136788005005e-15 82.970828108733372  
2478.0000000000005 0 40.335036000000009  2478.0000000000005 0 52.849889064739216  2478.0000000000005 0 62.995182000000014  2478.0000000000005 0 62.995182000000014  

0 4
1 3
2 3
3 4

0 4
1 4

9 0 0 0 0 3 3 10 4 4 2 0 0 -36.000000000000007  0 7.1054273576010011e-15 -36.000000000000007  0 1.4210854715202002e-14 -36.000000000000007  0 0 -36.000000000000007  
1.7521328090385362 -2.1316282072803002e-14 64.379621401813083  1.7521328090385242 -50.189810700906605 64.379621401813083  1.7521328090385122 -100.37962140181311 14.189810700906483  1.7521328090385122 -100.37962140181311 -36.000000000000007  
280.51333596681002 0 121.98  280.51333596681002 -67.367693784360256 121.98  280.51333596681002 -121.98 67.367693784360256  280.51333596681002 -121.98 0  
380.90824800000001 0 121.98  380.90824800000001 -67.367693784360256 121.98  380.90824800000001 -121.98 67.367693784360256  380.90824800000001 -121.98 0  
481.30316003319007 0 121.98  481.30316003319007 -67.367693784360256 121.98  481.30316003319007 -121.98 67.367693784360256  481.30316003319007 -121.98 0  
1723.6200856773844 0 121.98  1723.6200856773844 -67.367693784360256 121.98  1723.6200856773844 -121.98 67.367693784360256  1723.6200856773844 -121.98 0  
1755.2219160000004 0 121.98  1755.2219160000004 -67.367693784360256 121.98  1755.2219160000004 -121.98 67.367693784360256  1755.2219160000004 -121.98 0  
1771.0228311613084 0 121.98  1771.0228311613084 -67.367693784360256 121.98  1771.0228311613084 -121.98 67.367693784360256  1771.0228311613084 -121.98 0  
1794.6995275806601 0 121.48500000000001  1794.6995275806601 -67.09431283319401 121.48500000000001  1794.6995275806601 -121.48500000000001 67.362941983295528  1794.6995275806601 -121.48500000000001 0.60000000000000009  
1818.3762240000003 0 120.99000000000001  1818.3762240000003 -66.820931882027764 120.99000000000001  1818.3762240000003 -120.99000000000001 67.358190182230814  1818.3762240000003 -120.99000000000001 1.2000000000000002  

0 4
1 3
2 3
3 4

0 4
1 4

9 0 0 0 0 3 3 10 4 4 2 1818.3762240000003 0 120.99000000000001  1818.3762240000003 -66.820931882027764 120.99000000000001  1818.3762240000003 -120.99000000000001 67.358190182230814  1818.3762240000003 -120.99000000000001 1.2000000000000002  
1842.0529204193404 0 120.49500000000002  1842.0529204193404 -66.547550930861519 120.49500000000002  1842.0529204193404 -120.49500000000002 67.353438381166086  1842.0529204193404 -120.49500000000002 1.8000000000000003  
1865.7296168386922 0 120.00000000000001  1865.7296168386922 -66.274169979695287 120.00000000000001  1865.7296168386922 -120.00000000000001 67.348686580101372  1865.7296168386922 -120.00000000000001 2.4000000000000004  
1881.5305320000002 0 120.00000000000001  1881.5305320000002 -66.274169979695287 120.00000000000001  1881.5305320000002 -120.00000000000001 67.348686580101372  1881.5305320000002 -120.00000000000001 2.4000000000000004  
1913.0121078173884 4.4408920985006291e-16 117.24571900604654  1913.0121078173884 -64.897029482718494 117.24571900604654  1913.0121078173884 -117.24571900604654 65.971546083124565  1913.0121078173884 -117.24571900604654 2.4000000000000004  
2129.9344906702322 -1.7763568394002564e-15 108.52067275871245  2129.9344906702322 -46.579839866158089 108.52067275871245  2129.9344906702322 -85.003258758712448 70.134950594791803  2129.9344906702322 -85.003258758712448 23.601612000000003  
2179.7652660000003 0 101.51741400000002  2179.7652660000003 -43.078210486801929 101.51741400000002  2179.7652660000003 -78.000000000000014 66.633321215435657  2179.7652660000003 -78.000000000000014 23.601612000000003  
2229.8942722279803 8.8817841970012582e-16 97.131694241231656  2229.8942722279803 -40.885350607417685 97.131694241231656  2229.8942722279803 -73.614280241231654 64.440461336051527  2229.8942722279803 -73.614280241231654 23.601612000000003  
2403.4498738081925 -3.5527136788005005e-15 82.970828108733372  2403.4498738081925 -9.9878230543666824 82.970828108733372  2403.4498738081925 -19.975646108733365 62.837712119105895  2403.4498738081925 -19.975646108733365 40.335036000000009  
2478.0000000000005 0 62.995182000000014  2478.0000000000005 0 62.995182000000014  2478.0000000000005 0 52.849889064739216  2478.0000000000005 0 40.335036000000009  

0 4
1 3
2 3
3 4

0 4
1 4

9 0 0 0 0 3 3 10 4 4 2 0 0 -36.000000000000007  0 0 -36.000000000000007  -2.2204460492503084e-16 7.1054273576010011e-15 -36.000000000000007  -2.2204460492503084e-16 0 -36.000000000000007  
1.7521328090385122 -100.37962140181311 -36.000000000000007  1.7521328090385122 -100.37962140181311 -86.189810700906605  1.7521328090385242 -50.189810700906492 -136.37962140181321  1.7521328090385362 1.4210854715202002e-14 -136.37962140181321  
280.51333596681002 -121.98 0  280.51333596681002 -121.98 -67.367693784360256  280.51333596681002 -67.367693784360256 -121.98  280.51333596681002 0 -121.98  
380.90824800000001 -121.98 0  380.90824800000001 -121.98 -67.367693784360256  380.90824800000001 -67.367693784360256 -121.98  380.90824800000001 0 -121.98  
481.30316003319007 -121.98 0  481.30316003319007 -121.98 -67.367693784360256  481.30316003319007 -67.367693784360256 -121.98  481.30316003319007 0 -121.98  
1723.6200856773844 -121.98 0  1723.6200856773844 -121.98 -67.367693784360256  1723.6200856773844 -67.367693784360256 -121.98  1723.6200856773844 0 -121.98  
1755.2219160000004 -121.98 0  1755.2219160000004 -121.98 -67.367693784360256  1755.2219160000004 -67.367693784360256 -121.98  1755.2219160000004 0 -121.98  
1771.0228311613084 -121.98 0  1771.0228311613084 -121.98 -67.367693784360256  1771.0228311613084 -67.367693784360256 -121.98  1771.0228311613084 0 -121.98  
1794.6995275806601 -121.48500000000001 0.60000000000000009  1794.6995275806601 -121.48500000000001 -66.162941983295525  1794.6995275806601 -67.09431283319401 -120.28500000000001  1794.6995275806601 0 -120.28500000000001  
1818.3762240000003 -120.99000000000001 1.2000000000000002  1818.3762240000003 -120.99000000000001 -64.958190182230808  1818.3762240000003 -66.820931882027764 -118.59000000000002  1818.3762240000003 0 -118.59000000000002  

0 4
1 3
2 3
3 4

0 4
1 4

9 0 0 0 0 3 3 10 4 4 2 1818.3762240000003 -120.99000000000001 1.2000000000000002  1818.3762240000003 -120.99000000000001 -64.958190182230808  1818.3762240000003 -66.820931882027764 -118.59000000000002  1818.3762240000003 0 -118.59000000000002  
1842.0529204193404 -120.49500000000002 1.8000000000000003  1842.0529204193404 -120.49500000000002 -63.753438381166092  1842.0529204193404 -66.547550930861519 -116.89500000000002  1842.0529204193404 0 -116.89500000000002  
1865.7296168386922 -120.00000000000001 2.4000000000000004  1865.7296168386922 -120.00000000000001 -62.548686580101368  1865.7296168386922 -66.274169979695287 -115.20000000000002  1865.7296168386922 0 -115.20000000000002  
1881.5305320000002 -120.00000000000001 2.4000000000000004  1881.5305320000002 -120.00000000000001 -62.548686580101368  1881.5305320000002 -66.274169979695287 -115.20000000000002  1881.5305320000002 0 -115.20000000000002  
1913.0121078173884 -117.24571900604654 2.4000000000000004  1913.0121078173884 -117.24571900604654 -61.171546083124568  1913.0121078173884 -64.897029482718494 -112.44571900604653  1913.0121078173884 -2.2204460492503084e-16 -112.44571900604653  
2129.9344906702322 -85.003258758712448 23.601612000000003  2129.9344906702322 -85.003258758712448 -22.931726594791801  2129.9344906702322 -46.579839866158089 -61.317448758712452  2129.9344906702322 0 -61.317448758712452  
2179.7652660000003 -78.000000000000014 23.601612000000003  2179.7652660000003 -78.000000000000014 -19.430097215435644  2179.7652660000003 -43.078210486801929 -54.314190000000011  2179.7652660000003 0 -54.314190000000011  
2229.8942722279803 -73.614280241231654 23.601612000000003  2229.8942722279803 -73.614280241231654 -17.237237336051525  2229.8942722279803 -40.885350607417685 -49.928470241231651  2229.8942722279803 0 -49.928470241231651  
2403.4498738081925 -19.975646108733365 40.335036000000009  2403.4498738081925 -19.975646108733365 17.832359880894121  2403.4498738081925 -9.9878230543666824 -2.3007561087333483  2403.4498738081925 0 -2.3007561087333483  
2478.0000000000005 0 40.335036000000009  2478.0000000000005 0 27.820182935260807  2478.0000000000005 0 17.674890000000001  2478.0000000000005 0 17.674890000000001  

0 4
1 3
2 3
3 4

0 4
1 4

9 0 0 0 0 3 3 10 4 4 2 1818.3762240000003 0 -118.59000000000002  1818.3762240000003 66.820931882027764 -118.59000000000002  1818.3762240000003 120.99000000000001 -64.958190182230808  1818.3762240000003 120.99000000000001 1.2000000000000002  
1842.0529204193404 0 -116.89500000000002  1842.0529204193404 66.547550930861519 -116.89500000000002  1842.0529204193404 120.49500000000002 -63.753438381166092  1842.0529204193404 120.49500000000002 1.8000000000000003  
1865.7296168386922 0 -115.20000000000002  1865.7296168386922 66.274169979695287 -115.20000000000002  1865.7296168386922 120.00000000000001 -62.548686580101368  1865.7296168386922 120.00000000000001 2.4000000000000004  
1881.5305320000002 0 -115.20000000000002  1881.5305320000002 66.274169979695287 -115.20000000000002  1881.5305320000002 120.00000000000001 -62.548686580101368  1881.5305320000002 120.00000000000001 2.4000000000000004  
1913.0121078173884 -2.2204460492503084e-16 -112.44571900604653  1913.0121078173884 64.897029482718494 -112.44571900604653  1913.0121078173884 117.24571900604654 -61.171546083124568  1913.0121078173884 117.24571900604654 2.4000000000000004  
2129.9344906702322 0 -61.317448758712452  2129.9344906702322 46.579839866158089 -61.317448758712452  2129.9344906702322 85.003258758712448 -22.931726594791801  2129.9344906702322 85.003258758712448 23.601612000000003  
2179.7652660000003 0 -54.314190000000011  2179.7652660000003 43.078210486801929 -54.314190000000011  2179.7652660000003 78.000000000000014 -19.430097215435644  2179.7652660000003 78.000000000000014 23.601612000000003  
2229.8942722279803 0 -49.928470241231651  2229.8942722279803 40.885350607417685 -49.928470241231651  2229.8942722279803 73.614280241231654 -17.237237336051525  2229.8942722279803 73.614280241231654 23.601612000000003  
2403.4498738081925 0 -2.3007561087333483  2403.4498738081925 9.98782305436667 -2.3007561087333483  2403.4498738081925 19.975646108733365 17.832359880894121  2403.4498738081925 19.975646108733365 40.335036000000009  
2478.0000000000005 0 17.674890000000001  2478.0000000000005 0 17.674890000000001  2478.0000000000005 0 27.820182935260807  2478.0000000000005 0 40.335036000000009  

0 4
1 3
2 3
3 4

0 4
1 4

Triangulations 0

TShapes 44
Ve
1e-07
0 0 -36
0 0

0101101
*
Ed
 1e-07 1 1 1
2  1 1 0 0 1
0

0101000
+44 0 -44 0 *
Ve
1e-07
1818.376224 120.99 1.2
0 0

0101101
*
Ed
 1e-07 1 1 0
1  1 0 0 3
2  2 1 0 0 3
2  3 2 0 0 3
4 C2 1 0 2 0
0

0101000
+44 0 -42 0 *
Ve
1e-07
1818.376224 0 120.99
0 0

0101101
*
Ed
 1e-07 1 1 0
1  2 0 0 1
2  4 1 0 0 1
2  5 3 0 0 1
4 C2 1 0 3 0
0

0101000
+42 0 -40 0 *
Ed
 1e-07 1 1 0
1  3 0 0 3
2  6 1 0 0 3
2  7 4 0 0 3
4 G2 1 0 4 0
0

0101000
+44 0 -40 0 *
Wi

0101100
-43 0 +41 0 +39 0 -38 0 *
Fa
1  1e-07 1 0

0111000
+37 0 *
Ed
 1e-07 1 1 1
2  8 4 0 0 1
0

0101000
+44 0 -44 0 *
Ve
1e-07
1818.376224 -120.99 1.2
0 0

0101101
*
Ed
 1e-07 1 1 0
1  4 0 0 1
2  9 4 0 0 1
2  10 5 0 0 1
4 C2 4 0 5 0
0

0101000
+40 0 -34 0 *
Ed
 1e-07 1 1 0
1  5 0 0 3
2  11 4 0 0 3
2  12 6 0 0 3
4 C2 4 0 6 0
0

0101000
+44 0 -34 0 *
Wi

0101100
-35 0 +38 0 +33 0 -32 0 *
Fa
1  1e-07 4 0

0111000
+31 0 *
Ed
 1e-07 1 1 1
2  13 6 0 0 1
0

0101000
+44 0 -44 0 *
Ve
1e-07
1818.376224 0 -118.59
0 0

0101101
*
Ed
 1e-07 1 1 0
1  6 0 0 1
2  14 6 0 0 1
2  15 7 0 0 1
4 C2 6 0 7 0
0

0101000
+34 0 -28 0 *
Ed
 1e-07 1 1 0
1  7 0 0 3
2  16 6 0 0 3
2  17 2 0 0 3
4 C2 6 0 2 0
0

0101000
+44 0 -28 0 *
Wi

0101100
-29 0 +32 0 +27 0 -26 0 *
Fa
1  1e-07 6 0

0111000
+25 0 *
Ed
 1e-07 1 1 1
2  18 2 0 0 1
0

0101000
+44 0 -44 0 *
Ed
 1e-07 1 1 0
1  8 0 0 1
2  19 2 0 0 1
2  20 8 0 0 1
4 C2 2 0 8 0
0

0101000
+28 0 -42 0 *
Wi

0101100
-23 0 +26 0 +22 0 -41 0 *
Fa
1  1e-07 2 0

0111000
+21 0 *
Ve
1e-07
2478 0 40.335036
0 0

0101101
*
Ed
 1e-07 1 1 0
1  9 0 0 3
2  21 3 0 0 3
2  22 8 0 0 3
4 C2 3 0 8 0
0

0101000
+42 0 -19 0 *
Ve
1e-07
2478 0 62.995182
0 0

0101101
*
Ed
 1e-07 1 1 0
1  10 0 0 1
2  23 3 0 0 1
2  24 5 0 0 1
4 C0 3 0 5 0
0

0101000
+19 0 -17 0 *
Ed
 1e-07 1 1 0
1  11 0 0 3
2  25 3 0 0 3
2  26 5 0 0 3
4 C2 3 0 5 0
0

0101000
+40 0 -17 0 *
Wi

0101100
-39 0 +18 0 +16 0 -15 0 *
Fa
1  1e-07 3 0

0111000
+14 0 *
Ed
 1e-07 1 1 0
1  12 0 0 3
2  27 5 0 0 3
2  28 7 0 0 3
4 C2 5 0 7 0
0

0101000
+34 0 -19 0 *
Wi

0101100
-33 0 +15 0 -16 0 -12 0 *
Fa
1  1e-07 5 0

0111000
+11 0 *
Ve
1e-07
2478 0 17.67489
0 0

0101101
*
Ed
 1e-07 1 1 0
1  13 0 0 1
2  29 7 0 0 1
2  30 8 0 0 1
4 C0 7 0 8 0
0

0101000
+19 0 -9 0 *
Ed
 1e-07 1 1 0
1  14 0 0 3
2  31 7 0 0 3
2  32 8 0 0 3
4 C2 7 0 8 0
0

0101000
+28 0 -9 0 *
Wi

0101100
-27 0 +12 0 +8 0 -7 0 *
Fa
1  1e-07 7 0

0111000
+6 0 *
Wi

0101100
-22 0 +7 0 -8 0 -18 0 *
Fa
1  1e-07 8 0

0111000
+4 0 *
Sh

0101100
+36 0 +30 0 +24 0 +20 0 +13 0 +10 0 +5 0 +3 0 *
So

1100000
-2 0 *

+1 0 